<svg width="249" height="107" viewBox="0 0 249 107" fill="none" xmlns="http://www.w3.org/2000/svg">
<mask id="mask0_515_39" style="mask-type:alpha" maskUnits="userSpaceOnUse" x="0" y="4" width="89" height="89">
<rect y="4.84216" width="88.0395" height="88.0395" rx="14.7466" fill="#D9D9D9"/>
</mask>
<g mask="url(#mask0_515_39)">
<path fill-rule="evenodd" clip-rule="evenodd" d="M88.0395 4.84216H0V92.8816H88.0395V4.84216ZM44.0205 24.431C30.7045 24.431 31.0346 37.4168 31.0346 37.4168V73.2929H57.0063V37.4168C57.0063 37.4168 57.3364 24.431 44.0205 24.431Z" fill="#0E1C22"/>
<path d="M2.68817e-05 53.9242V4.84219H49.082L2.68817e-05 53.9242Z" fill="url(#paint0_linear_515_39)"/>
<path d="M9.22382e-06 18.2682V92.8816H77.2546L56.4553 72.4125H30.9239L9.22382e-06 18.2682Z" fill="url(#paint1_linear_515_39)"/>
<path d="M88.0395 43.7996V92.8816H38.9575L88.0395 43.7996Z" fill="url(#paint2_linear_515_39)"/>
</g>
<path d="M105.91 43L117.979 13.5559H120.333L132.273 43H128.892L118.492 16.9797H119.734L109.248 43H105.91ZM111.431 35.3394V32.5576H126.838V35.3394H111.431ZM144.121 43.428C142.495 43.428 141.04 43.0571 139.756 42.3153C138.472 41.5449 137.459 40.5035 136.717 39.1911C136.004 37.8787 135.648 36.338 135.648 34.5691V22.8856H138.686V34.4407C138.686 35.6675 138.9 36.7374 139.328 37.6504C139.785 38.5634 140.427 39.2767 141.254 39.7903C142.081 40.3038 143.037 40.5606 144.121 40.5606C145.805 40.5606 147.131 40.0042 148.101 38.8915C149.1 37.7788 149.599 36.2952 149.599 34.4407V22.8856H152.595V34.5691C152.595 36.3095 152.238 37.8501 151.525 39.1911C150.812 40.5321 149.813 41.5734 148.529 42.3153C147.245 43.0571 145.776 43.428 144.121 43.428ZM161.31 43V14.4119H164.306V43H161.31ZM156.218 25.5818V22.8856H169.356V25.5818H156.218ZM188.119 43V31.1881C188.119 29.4192 187.591 27.9926 186.536 26.9085C185.509 25.7958 184.139 25.2394 182.427 25.2394C181.258 25.2394 180.23 25.4962 179.346 26.0097C178.461 26.5233 177.762 27.2223 177.249 28.1068C176.735 28.9912 176.479 30.0041 176.479 31.1453L175.109 30.375C175.109 28.8628 175.466 27.5076 176.179 26.3093C176.892 25.111 177.848 24.1695 179.046 23.4847C180.273 22.8 181.671 22.4576 183.24 22.4576C184.781 22.4576 186.151 22.8143 187.349 23.5275C188.547 24.2123 189.474 25.1681 190.131 26.3949C190.815 27.6217 191.158 29.0483 191.158 30.6746V43H188.119ZM173.483 43V12.7H176.479V43H173.483Z" fill="#3F3D3D"/>
<path d="M112.974 89.2248V83.6135H120.609C122.019 83.6135 123.123 83.1995 123.92 82.3716C124.718 81.5437 125.116 80.5319 125.116 79.336C125.116 78.5081 124.932 77.7722 124.564 77.1283C124.196 76.4844 123.675 75.9784 123 75.6105C122.357 75.2425 121.559 75.0586 120.609 75.0586H112.974V69.5852H120.011C121.207 69.5852 122.173 69.2939 122.908 68.7113C123.644 68.0981 124.012 67.1782 124.012 65.9517C124.012 64.7558 123.644 63.8666 122.908 63.284C122.173 62.6708 121.207 62.3641 120.011 62.3641H112.974V56.7528H121.391C123.476 56.7528 125.239 57.1361 126.68 57.9027C128.152 58.6693 129.271 59.6965 130.038 60.9843C130.804 62.2721 131.187 63.698 131.187 65.2618C131.187 67.2549 130.544 68.9413 129.256 70.3211C127.968 71.701 126.067 72.6515 123.552 73.1728L123.736 70.7351C126.465 71.2564 128.566 72.3142 130.038 73.9087C131.54 75.5032 132.291 77.4656 132.291 79.796C132.291 81.5744 131.847 83.1842 130.957 84.6254C130.099 86.0359 128.842 87.155 127.186 87.9829C125.561 88.8108 123.598 89.2248 121.299 89.2248H112.974ZM107.454 89.2248V56.7528H114.584V89.2248H107.454ZM136.276 89.2248V66.8716H143.313V89.2248H136.276ZM143.313 76.9443L140.369 74.6446C140.952 72.0383 141.933 70.0145 143.313 68.5734C144.693 67.1322 146.609 66.4116 149.062 66.4116C150.135 66.4116 151.07 66.5803 151.868 66.9176C152.696 67.2242 153.416 67.7148 154.029 68.3894L149.844 73.6787C149.537 73.3414 149.154 73.0808 148.694 72.8968C148.234 72.7128 147.713 72.6209 147.13 72.6209C145.965 72.6209 145.03 72.9888 144.325 73.7247C143.65 74.43 143.313 75.5032 143.313 76.9443ZM164.612 89.6847C162.558 89.6847 160.718 89.1788 159.093 88.1669C157.498 87.155 156.226 85.7752 155.275 84.0274C154.355 82.2797 153.895 80.2866 153.895 78.0482C153.895 75.8098 154.355 73.8167 155.275 72.0689C156.226 70.3211 157.498 68.9413 159.093 67.9294C160.718 66.9176 162.558 66.4116 164.612 66.4116C166.114 66.4116 167.464 66.7029 168.659 67.2855C169.886 67.8681 170.883 68.6807 171.649 69.7232C172.416 70.7351 172.845 71.9003 172.937 73.2188V82.8776C172.845 84.1961 172.416 85.3766 171.649 86.4191C170.913 87.431 169.932 88.2282 168.705 88.8108C167.479 89.3934 166.114 89.6847 164.612 89.6847ZM166.038 83.3375C167.54 83.3375 168.751 82.8469 169.671 81.8657C170.591 80.8538 171.051 79.5813 171.051 78.0482C171.051 77.0056 170.837 76.0858 170.407 75.2885C170.009 74.4913 169.426 73.878 168.659 73.4488C167.924 72.9888 167.065 72.7588 166.084 72.7588C165.103 72.7588 164.229 72.9888 163.462 73.4488C162.726 73.878 162.128 74.4913 161.668 75.2885C161.239 76.0858 161.024 77.0056 161.024 78.0482C161.024 79.0601 161.239 79.9646 161.668 80.7618C162.098 81.5591 162.696 82.1877 163.462 82.6476C164.229 83.1076 165.087 83.3375 166.038 83.3375ZM170.775 89.2248V83.1995L171.833 77.7722L170.775 72.3449V66.8716H177.674V89.2248H170.775ZM190.77 89.7767C189.452 89.7767 188.148 89.6081 186.861 89.2708C185.603 88.9335 184.423 88.4582 183.319 87.845C182.246 87.201 181.326 86.4651 180.559 85.6372L184.561 81.5897C185.297 82.387 186.171 83.0156 187.183 83.4755C188.194 83.9048 189.298 84.1194 190.494 84.1194C191.322 84.1194 191.951 83.9968 192.38 83.7515C192.84 83.5062 193.07 83.1689 193.07 82.7396C193.07 82.1877 192.794 81.7737 192.242 81.4978C191.721 81.1911 191.046 80.9305 190.218 80.7158C189.39 80.4705 188.516 80.2099 187.597 79.9339C186.677 79.658 185.803 79.2747 184.975 78.7841C184.147 78.2935 183.472 77.6189 182.951 76.7603C182.43 75.8711 182.169 74.7519 182.169 73.4028C182.169 71.9616 182.537 70.7198 183.273 69.6772C184.009 68.604 185.052 67.7608 186.401 67.1475C187.75 66.5343 189.329 66.2276 191.138 66.2276C193.039 66.2276 194.787 66.5649 196.381 67.2395C198.007 67.8834 199.325 68.8493 200.337 70.1372L196.335 74.1847C195.63 73.3568 194.833 72.7742 193.944 72.4369C193.085 72.0996 192.242 71.9309 191.414 71.9309C190.617 71.9309 190.019 72.0536 189.62 72.2989C189.222 72.5135 189.022 72.8355 189.022 73.2648C189.022 73.7247 189.283 74.0927 189.804 74.3686C190.326 74.6446 191 74.8899 191.828 75.1045C192.656 75.3192 193.53 75.5798 194.45 75.8864C195.37 76.1931 196.243 76.607 197.071 77.1283C197.899 77.6496 198.574 78.3548 199.095 79.244C199.616 80.1026 199.877 81.2371 199.877 82.6476C199.877 84.8247 199.049 86.5571 197.393 87.845C195.768 89.1328 193.56 89.7767 190.77 89.7767ZM203.695 89.2248V66.8716H210.732V89.2248H203.695ZM207.236 63.7899C206.133 63.7899 205.213 63.422 204.477 62.6861C203.772 61.9195 203.419 60.9996 203.419 59.9264C203.419 58.8226 203.772 57.9027 204.477 57.1668C205.213 56.4309 206.133 56.0629 207.236 56.0629C208.34 56.0629 209.245 56.4309 209.95 57.1668C210.655 57.9027 211.008 58.8226 211.008 59.9264C211.008 60.9996 210.655 61.9195 209.95 62.6861C209.245 63.422 208.34 63.7899 207.236 63.7899ZM215.688 89.2248V55.8329H222.725V89.2248H215.688Z" fill="#3F3D3D"/>
<defs>
<linearGradient id="paint0_linear_515_39" x1="2.20101" y1="4.62209" x2="28.6129" y2="31.0339" gradientUnits="userSpaceOnUse">
<stop stop-color="#2675B5"/>
<stop offset="0.78125" stop-color="#629FD0"/>
</linearGradient>
<linearGradient id="paint1_linear_515_39" x1="42.369" y1="55.4649" x2="4.29193" y2="101.025" gradientUnits="userSpaceOnUse">
<stop stop-color="#FFBF00"/>
<stop offset="1" stop-color="#DB9B61"/>
</linearGradient>
<linearGradient id="paint2_linear_515_39" x1="88.0395" y1="92.8816" x2="63.6085" y2="66.1396" gradientUnits="userSpaceOnUse">
<stop stop-color="#009C37"/>
<stop offset="1" stop-color="#4BC877"/>
</linearGradient>
</defs>
</svg>
